<svg id="Camada_1" data-name="Camada 1" xmlns="http://www.w3.org/2000/svg" xmlns:xlink="http://www.w3.org/1999/xlink" viewBox="0 0 676.84 678.58"><defs><style>.cls-1{fill:none;}.cls-2{fill:url(#Gradiente_sem_nome_23);}.cls-3,.cls-4{fill:#fff;}.cls-4{opacity:0.85;}</style><radialGradient id="Gradiente_sem_nome_23" cx="338.12" cy="338.88" r="319.69" gradientUnits="userSpaceOnUse"><stop offset="0.63" stop-color="#00a1ff"/><stop offset="1" stop-color="#3e92dd"/></radialGradient></defs><title>icon-nativePrancheta 1</title><rect class="cls-1" x="2.67" y="3.42" width="670.92" height="670.92"/><circle class="cls-2" cx="338.12" cy="338.88" r="319.69"/><path class="cls-3" d="M338.12,95.87c-134,0-243,109-243,243s109,243,243,243,243-109,243-243S472.12,95.87,338.12,95.87Zm0,448c-113.06,0-205-92-205-205s92-205,205-205,205,92,205,205S451.18,543.91,338.12,543.91Z"/><path class="cls-4" d="M477.31,333.15,390,312l26.39-43.29a5.89,5.89,0,0,0-8.1-8.1L365,287l-21.17-87.28a5.9,5.9,0,0,0-11.46,0L311.23,287l-43.29-26.39a5.89,5.89,0,0,0-8.1,8.1L286.23,312l-87.28,21.17a5.9,5.9,0,0,0,0,11.46l87.28,21.17-26.39,43.29a5.9,5.9,0,0,0,8.1,8.1l43.29-26.39,21.17,87.28a5.9,5.9,0,0,0,11.46,0L365,390.78l43.29,26.39a5.9,5.9,0,0,0,8.1-8.1L390,365.77l87.28-21.17a5.89,5.89,0,0,0,0-11.46Z"/><path class="cls-3" d="M425,188.46a4.12,4.12,0,0,0,5.64-1.51l9.22-16a4.13,4.13,0,0,0-7.15-4.13l-9.22,16A4.13,4.13,0,0,0,425,188.46Z"/><path class="cls-3" d="M492.12,254.1a4.1,4.1,0,0,0,2.06-.55l16-9.21a4.13,4.13,0,0,0-4.13-7.15l-16,9.21a4.13,4.13,0,0,0,2.07,7.7Z"/><path class="cls-3" d="M534.36,334.75H515.94a4.13,4.13,0,1,0,0,8.25h18.43a4.13,4.13,0,1,0,0-8.25Z"/><path class="cls-3" d="M510.13,433.42l-16-9.22a4.13,4.13,0,1,0-4.13,7.15l16,9.22a4.13,4.13,0,0,0,4.13-7.15Z"/><path class="cls-3" d="M430.6,490.8a4.13,4.13,0,0,0-7.15,4.13l9.22,16a4.13,4.13,0,1,0,7.14-4.13Z"/><path class="cls-3" d="M338.12,512.55a4.13,4.13,0,0,0-4.13,4.13v18.43a4.13,4.13,0,1,0,8.25,0V516.68A4.13,4.13,0,0,0,338.12,512.55Z"/><path class="cls-3" d="M251.28,489.29a4.13,4.13,0,0,0-5.64,1.51l-9.21,16a4.13,4.13,0,1,0,7.15,4.13l9.21-16A4.12,4.12,0,0,0,251.28,489.29Z"/><path class="cls-3" d="M182.07,424.21l-16,9.22a4.13,4.13,0,1,0,4.13,7.15l16-9.22a4.13,4.13,0,1,0-4.13-7.15Z"/><path class="cls-3" d="M160.31,334.75H141.89a4.13,4.13,0,1,0,0,8.25h18.43a4.13,4.13,0,1,0,0-8.25Z"/><path class="cls-3" d="M186.2,246.4l-16-9.21a4.13,4.13,0,1,0-4.13,7.15l16,9.21a4.13,4.13,0,0,0,4.13-7.15Z"/><path class="cls-3" d="M245.65,186.95a4.13,4.13,0,0,0,7.15-4.13l-9.21-16a4.13,4.13,0,1,0-7.15,4.13Z"/><path class="cls-3" d="M338.12,165.19a4.13,4.13,0,0,0,4.13-4.13V142.64a4.13,4.13,0,1,0-8.25,0v18.43A4.13,4.13,0,0,0,338.12,165.19Z"/></svg>