<svg id="Camada_1" data-name="Camada 1" xmlns="http://www.w3.org/2000/svg" viewBox="0 0 1024 744.41"><defs><style>.cls-1{fill:#343c46;}.cls-2{fill:#00a1ff;}.cls-3,.cls-4{fill:#fff;}.cls-4{opacity:0.85;}</style></defs><title>logo-nativePrancheta 1</title><path class="cls-1" d="M11.68,500.39h7.93L30.82,466.3a53.15,53.15,0,0,1,10.7,4.42A22.39,22.39,0,0,1,49,476.95q2.55,3.51,2.55,17.33v6.12H89.84A24.37,24.37,0,0,1,91.76,510q0,4.31-1.59,5.78t-6.12,1.47H51.55V562q0,19.48,3.28,26.5a11.77,11.77,0,0,0,10.93,7.31q7.65.29,18.63-5.38a16.46,16.46,0,0,1,3.28,10.08q0,7.7-8.1,10.36t-25.2,2.66q-18.69,0-26.67-7.47t-8-29V557.37q0-18.69-1.13-40.1H7a25.3,25.3,0,0,1-2-9.85q0-3.85,1.53-5.44T11.68,500.39Z"/><path class="cls-1" d="M103.88,505.94q0-4.08,3-5.32t37.43-2.27a74.73,74.73,0,0,1,0,13.14q14.27-8.38,25.83-11.33a83.9,83.9,0,0,1,20.39-2.94q4.08,0,5.44,1t1.36,4.47a48.49,48.49,0,0,1-1.87,13q-1.87,6.74-4.64,8.66T182,527.12q-6,.91-7,.45t-6.4-7.59q-8.38,0-12.86,6.06t-4.47,31.21q0,23,.57,39.64h17.78a17.21,17.21,0,0,1,2,8.38q0,4-1.64,5.55t-6.4,1.59H105.92a22.78,22.78,0,0,1-2-8.95q0-3.51,1.59-5t5.1-1.53h8.27q.57-16.65.57-38.63,0-31.71-3-37.49T105.92,515A21.91,21.91,0,0,1,103.88,505.94Z"/><path class="cls-1" d="M256.22,596.9h13.37a18,18,0,0,1,1.92,8.38q0,4-1.64,5.55t-6.4,1.59H209.1a23.89,23.89,0,0,1-1.92-8.95q0-3.51,1.59-5t5.1-1.53h9.29q.57-14.5.57-30.92,0-25-.4-33.24t-1.76-12q-1.36-3.79-4.19-4.76a27.12,27.12,0,0,0-8.27-1,13.89,13.89,0,0,1-1.92-7.36q0-6.34,5.21-7.82t21.18-1.47q12,0,16.37.91t5,3.57a34.34,34.34,0,0,1,.62,7.42V566Q255.65,582.4,256.22,596.9ZM235.49,483.63q-10.19,0-14.72-3.91t-4.53-11A15.3,15.3,0,0,1,222,456.39q5.78-4.81,16.42-4.81,10.87,0,15.4,4.13a14,14,0,0,1,4.53,10.82,15.73,15.73,0,0,1-5.44,12.23Q247.5,483.63,235.49,483.63Z"/><path class="cls-1" d="M396.33,543.21q0,40.21.57,53.69h12.35a17.23,17.23,0,0,1,2,8.38q0,4-1.64,5.55t-6.4,1.59h-47a23.89,23.89,0,0,1-1.92-8.95q0-3.51,1.59-5t5.1-1.53h2.83q.57-19.82.57-39.19,0-23.11-4.25-31t-13.76-7.87a14.33,14.33,0,0,0-10.42,4.7q-4.65,4.7-4.64,19.65V566q0,14.27.57,30.92H340a18,18,0,0,1,1.93,8.38q0,4-1.64,5.55t-6.4,1.59h-48a22.78,22.78,0,0,1-2-8.95q0-3.51,1.59-5t5.1-1.53h8.27q.57-18.69.57-38.63,0-31.71-3-37.49T285.9,515a21.91,21.91,0,0,1-2-9.06q0-4.08,3-5.32t37.43-2.27a73.51,73.51,0,0,1,0,13,96.69,96.69,0,0,1,23.16-10.93,67.34,67.34,0,0,1,18.86-3.23q11.21,0,17.22,3.45a19.56,19.56,0,0,1,8.49,9.12,88.89,88.89,0,0,1,20.73-9.4A64.76,64.76,0,0,1,431,497.22q14.84,0,22.6,7t7.76,28.32q0,55.73,2,60.09t8.83,4.25a21.84,21.84,0,0,1,1.7,8.49q0,4.08-2.66,5.55t-10.14,1.47q-18.35,0-23.22-.57t-6.68-3.68q-1.81-3.11-1.81-10.48v-40q0-23.11-4.25-31t-13.76-7.87a14.33,14.33,0,0,0-10.42,4.7Q396.33,528.26,396.33,543.21Z"/><path class="cls-1" d="M595.68,562.35q0,22.54,1.64,27.92t8.32,4.81a18.26,18.26,0,0,1,1.59,7.14q0,5.55-8.27,8.44a46.34,46.34,0,0,1-15.18,2.89q-5.33,0-7.48-1.64t-6.68-8.21a119.11,119.11,0,0,1-20.22,8.15,73.35,73.35,0,0,1-20.67,2.83q-14.5,0-22.77-7.65t-8.27-31.09q0-35-.4-43.21t-1.76-12q-1.36-3.79-3.62-4.76a17.48,17.48,0,0,0-6.57-1,13.32,13.32,0,0,1-2-7.36q0-5.21,6.34-7.25t20-2q9.86,0,13.93,1.19t5,3.57q1,2.38,1,16V559.4q0,22.09,4.19,28.88a13.23,13.23,0,0,0,11.89,6.8,22.61,22.61,0,0,0,10.65-2.55q4.87-2.55,6.12-6.68T563.74,571q0-30-.11-38.17t-1.25-12q-1.13-3.85-2.89-4.81t-6.06-1a13.3,13.3,0,0,1-2-7.36q0-5.21,6.4-7.25t18-2q9.85,0,13.93,1.19t5,4.08q1,2.89,1,16.59Z"/><path class="cls-1" d="M623.32,505.94q0-4.08,3-5.32t37.43-2.27a74.73,74.73,0,0,1,0,13.14q14.27-8.38,25.83-11.33A83.9,83.9,0,0,1,710,497.22q4.08,0,5.44,1t1.36,4.47a48.49,48.49,0,0,1-1.87,13q-1.87,6.74-4.64,8.66t-8.78,2.83q-6,.91-7,.45T688.1,520q-8.38,0-12.86,6.06t-4.47,31.21q0,23,.57,39.64h17.78a17.21,17.21,0,0,1,2,8.38q0,4-1.64,5.55t-6.4,1.59H625.36a22.78,22.78,0,0,1-2-8.95q0-3.51,1.59-5t5.1-1.53h8.27q.57-16.65.57-38.63,0-31.71-3-37.49T625.36,515A21.91,21.91,0,0,1,623.32,505.94Z"/><path class="cls-1" d="M733.3,500.39h7.93l11.21-34.09a53.15,53.15,0,0,1,10.7,4.42,22.39,22.39,0,0,1,7.47,6.23q2.55,3.51,2.55,17.33v6.12h38.28a24.37,24.37,0,0,1,1.92,9.63q0,4.31-1.59,5.78t-6.12,1.47H773.17V562q0,19.48,3.28,26.5a11.77,11.77,0,0,0,10.93,7.31q7.65.29,18.63-5.38a16.46,16.46,0,0,1,3.28,10.08q0,7.7-8.1,10.36T776,613.54q-18.69,0-26.67-7.47t-8-29V557.37q0-18.69-1.13-40.1H728.65a25.3,25.3,0,0,1-2-9.85q0-3.85,1.53-5.44T733.3,500.39Z"/><path class="cls-1" d="M872.39,596.9h13.37a18,18,0,0,1,1.92,8.38q0,4-1.64,5.55t-6.4,1.59H825.27a23.89,23.89,0,0,1-1.92-8.95q0-3.51,1.59-5t5.1-1.53h9.29q.57-14.5.57-30.92,0-25-.4-33.24t-1.76-12q-1.36-3.79-4.19-4.76a27.12,27.12,0,0,0-8.27-1,13.89,13.89,0,0,1-1.92-7.36q0-6.34,5.21-7.82t21.18-1.47q12,0,16.37.91t5,3.57a34.34,34.34,0,0,1,.62,7.42V566Q871.82,582.4,872.39,596.9ZM851.66,483.63q-10.19,0-14.72-3.91t-4.53-11a15.3,15.3,0,0,1,5.78-12.29q5.78-4.81,16.42-4.81,10.87,0,15.4,4.13a14,14,0,0,1,4.53,10.82,15.73,15.73,0,0,1-5.44,12.23Q863.67,483.63,851.66,483.63Z"/><path class="cls-1" d="M907.61,596.9q5.66-7.82,29.11-41.8-10.08-15.4-15.23-23t-8.16-11.38q-3-3.79-5.78-4.76a22.39,22.39,0,0,0-7.19-1,16,16,0,0,1-1.93-8.38q0-5.32,5.78-6.8t24.69-1.47a35.67,35.67,0,0,1,8.89,1.36,11.48,11.48,0,0,1,7.42,5.27q2.27,3.91,6.8,13.87a252.5,252.5,0,0,0,13.48,24.81,219.92,219.92,0,0,0,14.61-26.5h-5.21a18.09,18.09,0,0,1-2-8.38q0-4.42,1.76-6.4t5.72-2h34.21a17.18,17.18,0,0,1,2,8.15q0,5-1.92,6.8t-6.8,1.81h-.68a462.56,462.56,0,0,0-28.88,39.76q23.22,35,26.33,37.49t9.69,2.49a13.2,13.2,0,0,1,1.7,7.25q0,5.33-4.19,6.8t-13.14,1.47q-15.29,0-19.65-.62a9.75,9.75,0,0,1-6.74-3.79q-2.38-3.17-22.88-39.64-12.12,19.6-14.61,28.54h7.47a18,18,0,0,1,1.93,8.38q0,4-1.64,5.55t-6.4,1.59H899a23.89,23.89,0,0,1-1.92-8.95q0-3.51,1.59-5t5.1-1.53Z"/><circle class="cls-2" cx="510.79" cy="205.83" r="201.83"/><path class="cls-3" d="M510.79,52.41c-84.59,0-153.42,68.82-153.42,153.42s68.82,153.42,153.42,153.42S664.2,290.42,664.2,205.83,595.38,52.41,510.79,52.41Zm0,282.86A129.44,129.44,0,1,1,640.23,205.83,129.59,129.59,0,0,1,510.79,335.27Z"/><path class="cls-4" d="M598.66,202.21l-55.1-13.36,16.66-27.33a3.72,3.72,0,0,0-5.11-5.11l-27.33,16.66L514.41,118a3.72,3.72,0,0,0-7.23,0l-13.36,55.1L466.48,156.4a3.72,3.72,0,0,0-5.11,5.11L478,188.84l-55.1,13.36a3.72,3.72,0,0,0,0,7.23L478,222.81l-16.66,27.33a3.72,3.72,0,0,0,5.12,5.12l27.33-16.66,13.36,55.1a3.72,3.72,0,0,0,7.23,0l13.36-55.1,27.33,16.66a3.72,3.72,0,0,0,5.12-5.12l-16.66-27.33,55.1-13.36a3.72,3.72,0,0,0,0-7.23Z"/><path class="cls-3" d="M565.61,110.86a2.6,2.6,0,0,0,3.56-1L575,99.84a2.61,2.61,0,0,0-4.51-2.61l-5.82,10.08A2.61,2.61,0,0,0,565.61,110.86Z"/><path class="cls-3" d="M608,152.3a2.59,2.59,0,0,0,1.3-.35l10.07-5.82a2.61,2.61,0,0,0-2.61-4.51l-10.07,5.82A2.61,2.61,0,0,0,608,152.3Z"/><path class="cls-3" d="M634.68,203.22H623a2.61,2.61,0,1,0,0,5.21h11.63a2.61,2.61,0,1,0,0-5.21Z"/><path class="cls-3" d="M619.38,265.52l-10.08-5.82a2.61,2.61,0,0,0-2.61,4.51L616.78,270a2.61,2.61,0,0,0,2.61-4.51Z"/><path class="cls-3" d="M569.17,301.74a2.61,2.61,0,0,0-4.51,2.61l5.82,10.07a2.6,2.6,0,1,0,4.51-2.61Z"/><path class="cls-3" d="M510.79,315.48a2.61,2.61,0,0,0-2.61,2.61v11.64a2.61,2.61,0,1,0,5.21,0V318.08A2.61,2.61,0,0,0,510.79,315.48Z"/><path class="cls-3" d="M456,300.79a2.6,2.6,0,0,0-3.56,1l-5.82,10.07a2.6,2.6,0,1,0,4.51,2.61l5.82-10.07A2.6,2.6,0,0,0,456,300.79Z"/><path class="cls-3" d="M412.27,259.7l-10.08,5.82a2.6,2.6,0,1,0,2.6,4.51l10.08-5.82a2.6,2.6,0,1,0-2.6-4.51Z"/><path class="cls-3" d="M398.53,203.22H386.9a2.61,2.61,0,1,0,0,5.21h11.63a2.61,2.61,0,1,0,0-5.21Z"/><path class="cls-3" d="M414.87,147.44l-10.08-5.82a2.61,2.61,0,1,0-2.61,4.51L412.27,152a2.61,2.61,0,0,0,2.61-4.51Z"/><path class="cls-3" d="M452.4,109.91a2.61,2.61,0,0,0,4.51-2.61L451.1,97.23a2.61,2.61,0,1,0-4.51,2.61Z"/><path class="cls-3" d="M510.79,96.17a2.61,2.61,0,0,0,2.61-2.61V81.94a2.61,2.61,0,1,0-5.21,0V93.57A2.61,2.61,0,0,0,510.79,96.17Z"/><path class="cls-2" d="M351.82,722.13h-6.95V668.06h8.46l26.28,42.06h.3l-.3-10.42V668.06h6.95v54.07h-7.25L351.82,678h-.3l.3,10.42Z"/><path class="cls-2" d="M423.26,722.13h-7.7l20.39-54.07h7.85l20.39,54.07h-7.7l-5.21-14.65H428.54Zm16.46-45.54L430.88,701h18L440,676.6Z"/><path class="cls-2" d="M506.7,674.71v47.42h-6.95V674.71h-15.1v-6.65h37.15v6.65Z"/><path class="cls-2" d="M558.66,722.13h-6.95V668.06h6.95Z"/><path class="cls-2" d="M612.81,722.13h-7.25l-19-54.07h7.7L609,711.94h.3l15.41-43.87h7.7Z"/><path class="cls-2" d="M693,668.06v6.65H668.39v17.14h22.2v6.49h-22.2v17.14H693v6.65H661.44V668.06Z"/></svg>