<?xml version="1.0" encoding="utf-8"?>
<!-- Generator: Adobe Illustrator 21.0.2, SVG Export Plug-In . SVG Version: 6.00 Build 0)  -->
<svg version="1.1" id="Camada_1" xmlns="http://www.w3.org/2000/svg" xmlns:xlink="http://www.w3.org/1999/xlink" x="0px" y="0px"
	 viewBox="0 0 189 135" style="enable-background:new 0 0 189 135;" xml:space="preserve">
<style type="text/css">
	.st0{fill:#FFFFFF;}
	.st1{opacity:0.15;fill:#FFFFFF;}
	.st2{opacity:0.75;fill:#FFFFFF;}
</style>
<g>
	<g>
		<path class="st0" d="M5.4,94.2h1.4l2-6.1c0.7,0.2,1.3,0.5,1.9,0.8c0.6,0.3,1,0.7,1.3,1.1s0.5,1.4,0.5,3.1v1.1h6.8
			c0.2,0.5,0.3,1.1,0.3,1.7c0,0.5-0.1,0.9-0.3,1c-0.2,0.2-0.6,0.3-1.1,0.3h-5.8v8c0,2.3,0.2,3.9,0.6,4.7c0.4,0.8,1,1.3,2,1.3
			c0.9,0,2-0.3,3.3-1c0.4,0.5,0.6,1.1,0.6,1.8c0,0.9-0.5,1.5-1.4,1.9c-1,0.3-2.5,0.5-4.5,0.5c-2.2,0-3.8-0.4-4.8-1.3
			c-1-0.9-1.4-2.6-1.4-5.2v-3.5c0-2.2-0.1-4.6-0.2-7.2H4.6c-0.2-0.6-0.4-1.2-0.4-1.8c0-0.5,0.1-0.8,0.3-1C4.7,94.3,5,94.2,5.4,94.2z
			"/>
		<path class="st0" d="M21.9,95.1c0-0.5,0.2-0.8,0.5-1c0.4-0.1,2.6-0.3,6.7-0.4c0.1,0.6,0.1,1.3,0,2.3c1.7-1,3.2-1.7,4.6-2
			c1.4-0.4,2.6-0.5,3.6-0.5c0.5,0,0.8,0.1,1,0.2c0.2,0.1,0.2,0.4,0.2,0.8c0,0.7-0.1,1.5-0.3,2.3c-0.2,0.8-0.5,1.3-0.8,1.5
			c-0.3,0.2-0.9,0.4-1.6,0.5c-0.7,0.1-1.1,0.1-1.2,0.1c-0.1-0.1-0.5-0.5-1.1-1.4c-1,0-1.8,0.4-2.3,1.1c-0.5,0.7-0.8,2.6-0.8,5.6
			c0,2.7,0,5.1,0.1,7.1h3.2c0.2,0.4,0.4,0.9,0.4,1.5c0,0.5-0.1,0.8-0.3,1c-0.2,0.2-0.6,0.3-1.1,0.3H22.2c-0.2-0.6-0.4-1.1-0.4-1.6
			c0-0.4,0.1-0.7,0.3-0.9c0.2-0.2,0.5-0.3,0.9-0.3h1.5c0.1-2,0.1-4.3,0.1-6.9c0-3.8-0.2-6-0.5-6.7c-0.4-0.7-1-1-1.9-1
			C22,96.2,21.9,95.7,21.9,95.1z"/>
		<path class="st0" d="M49.1,111.4h2.4c0.2,0.4,0.3,0.9,0.3,1.5c0,0.5-0.1,0.8-0.3,1c-0.2,0.2-0.6,0.3-1.1,0.3h-9.7
			c-0.2-0.6-0.3-1.1-0.3-1.6c0-0.4,0.1-0.7,0.3-0.9c0.2-0.2,0.5-0.3,0.9-0.3h1.7c0.1-1.7,0.1-3.6,0.1-5.5c0-3,0-5-0.1-5.9
			c0-1-0.2-1.7-0.3-2.1c-0.2-0.5-0.4-0.7-0.7-0.8c-0.3-0.1-0.8-0.2-1.5-0.2c-0.2-0.4-0.3-0.8-0.3-1.3c0-0.8,0.3-1.2,0.9-1.4
			c0.6-0.2,1.9-0.3,3.8-0.3c1.4,0,2.4,0.1,2.9,0.2c0.5,0.1,0.8,0.3,0.9,0.6c0.1,0.3,0.1,0.8,0.1,1.3v9.9
			C48.9,107.8,49,109.7,49.1,111.4z M45.4,91.2c-1.2,0-2.1-0.2-2.6-0.7c-0.5-0.5-0.8-1.1-0.8-2c0-0.9,0.3-1.6,1-2.2
			c0.7-0.6,1.7-0.9,2.9-0.9c1.3,0,2.2,0.2,2.7,0.7c0.5,0.5,0.8,1.1,0.8,1.9c0,0.9-0.3,1.6-1,2.2S46.8,91.2,45.4,91.2z"/>
		<path class="st0" d="M74.1,101.8c0,4.8,0,8,0.1,9.6h2.2c0.2,0.4,0.4,0.9,0.4,1.5c0,0.5-0.1,0.8-0.3,1c-0.2,0.2-0.6,0.3-1.1,0.3
			h-8.4c-0.2-0.6-0.3-1.1-0.3-1.6c0-0.4,0.1-0.7,0.3-0.9c0.2-0.2,0.5-0.3,0.9-0.3h0.5c0.1-2.4,0.1-4.7,0.1-7c0-2.7-0.3-4.6-0.8-5.5
			s-1.3-1.4-2.5-1.4c-0.7,0-1.3,0.3-1.9,0.8c-0.6,0.6-0.8,1.7-0.8,3.5v4.1c0,1.7,0,3.5,0.1,5.5H64c0.2,0.4,0.3,0.9,0.3,1.5
			c0,0.5-0.1,0.8-0.3,1c-0.2,0.2-0.6,0.3-1.1,0.3h-8.6c-0.2-0.6-0.4-1.1-0.4-1.6c0-0.4,0.1-0.7,0.3-0.9c0.2-0.2,0.5-0.3,0.9-0.3h1.5
			c0.1-2.2,0.1-4.5,0.1-6.9c0-3.8-0.2-6-0.5-6.7c-0.4-0.7-1-1-1.9-1c-0.2-0.5-0.4-1.1-0.4-1.6c0-0.5,0.2-0.8,0.5-1
			c0.4-0.1,2.6-0.3,6.7-0.4c0.1,0.6,0.1,1.3,0,2.3c1.5-0.9,2.8-1.6,4.1-2c1.3-0.4,2.4-0.6,3.4-0.6c1.3,0,2.4,0.2,3.1,0.6
			c0.7,0.4,1.2,1,1.5,1.6c1.2-0.7,2.4-1.3,3.7-1.7c1.3-0.4,2.3-0.6,3.3-0.6c1.8,0,3.1,0.4,4,1.3c0.9,0.8,1.4,2.5,1.4,5.1
			c0,6.6,0.1,10.2,0.4,10.7c0.2,0.5,0.8,0.8,1.6,0.8c0.2,0.5,0.3,1,0.3,1.5c0,0.5-0.2,0.8-0.5,1c-0.3,0.2-0.9,0.3-1.8,0.3
			c-2.2,0-3.6,0-4.1-0.1c-0.6-0.1-1-0.3-1.2-0.7c-0.2-0.4-0.3-1-0.3-1.9v-7.1c0-2.7-0.3-4.6-0.8-5.5s-1.3-1.4-2.5-1.4
			c-0.7,0-1.3,0.3-1.9,0.8C74.3,98.9,74.1,100,74.1,101.8z"/>
		<path class="st0" d="M109.7,105.2c0,2.7,0.1,4.3,0.3,5c0.2,0.6,0.7,0.9,1.5,0.9c0.2,0.4,0.3,0.9,0.3,1.3c0,0.7-0.5,1.2-1.5,1.5
			c-1,0.3-1.9,0.5-2.7,0.5c-0.6,0-1.1-0.1-1.3-0.3c-0.3-0.2-0.7-0.7-1.2-1.5c-1.3,0.6-2.5,1.1-3.6,1.5c-1.2,0.3-2.4,0.5-3.7,0.5
			c-1.7,0-3.1-0.5-4.1-1.4c-1-0.9-1.5-2.8-1.5-5.6c0-4.2,0-6.7-0.1-7.7c0-1-0.2-1.7-0.3-2.1c-0.2-0.5-0.4-0.7-0.6-0.8
			c-0.3-0.1-0.7-0.2-1.2-0.2c-0.2-0.4-0.4-0.8-0.4-1.3c0-0.6,0.4-1.1,1.1-1.3c0.8-0.2,1.9-0.4,3.6-0.4c1.2,0,2,0.1,2.5,0.2
			c0.5,0.1,0.8,0.4,0.9,0.6c0.1,0.3,0.2,1.2,0.2,2.9v7.2c0,2.6,0.2,4.3,0.7,5.2c0.5,0.8,1.2,1.2,2.1,1.2c0.7,0,1.3-0.2,1.9-0.5
			s0.9-0.7,1.1-1.2c0.1-0.5,0.2-1.4,0.2-2.7c0-3.6,0-5.8,0-6.8c0-1-0.1-1.7-0.2-2.1c-0.1-0.5-0.3-0.7-0.5-0.9
			c-0.2-0.1-0.6-0.2-1.1-0.2c-0.2-0.4-0.4-0.8-0.4-1.3c0-0.6,0.4-1.1,1.1-1.3c0.8-0.2,1.8-0.4,3.2-0.4c1.2,0,2,0.1,2.5,0.2
			c0.5,0.1,0.8,0.4,0.9,0.7c0.1,0.3,0.2,1.3,0.2,3V105.2z"/>
		<path class="st0" d="M114.6,95.1c0-0.5,0.2-0.8,0.5-1c0.4-0.1,2.6-0.3,6.7-0.4c0.1,0.6,0.1,1.3,0,2.3c1.7-1,3.2-1.7,4.6-2
			c1.4-0.4,2.6-0.5,3.6-0.5c0.5,0,0.8,0.1,1,0.2c0.2,0.1,0.2,0.4,0.2,0.8c0,0.7-0.1,1.5-0.3,2.3c-0.2,0.8-0.5,1.3-0.8,1.5
			c-0.3,0.2-0.9,0.4-1.6,0.5c-0.7,0.1-1.1,0.1-1.2,0.1c-0.1-0.1-0.5-0.5-1.1-1.4c-1,0-1.8,0.4-2.3,1.1c-0.5,0.7-0.8,2.6-0.8,5.6
			c0,2.7,0,5.1,0.1,7.1h3.2c0.2,0.4,0.4,0.9,0.4,1.5c0,0.5-0.1,0.8-0.3,1c-0.2,0.2-0.6,0.3-1.1,0.3H115c-0.2-0.6-0.4-1.1-0.4-1.6
			c0-0.4,0.1-0.7,0.3-0.9c0.2-0.2,0.5-0.3,0.9-0.3h1.5c0.1-2,0.1-4.3,0.1-6.9c0-3.8-0.2-6-0.5-6.7c-0.4-0.7-1-1-1.9-1
			C114.7,96.2,114.6,95.7,114.6,95.1z"/>
		<path class="st0" d="M134.2,94.2h1.4l2-6.1c0.7,0.2,1.3,0.5,1.9,0.8c0.6,0.3,1,0.7,1.3,1.1s0.5,1.4,0.5,3.1v1.1h6.8
			c0.2,0.5,0.3,1.1,0.3,1.7c0,0.5-0.1,0.9-0.3,1c-0.2,0.2-0.6,0.3-1.1,0.3h-5.8v8c0,2.3,0.2,3.9,0.6,4.7c0.4,0.8,1,1.3,2,1.3
			c0.9,0,2-0.3,3.3-1c0.4,0.5,0.6,1.1,0.6,1.8c0,0.9-0.5,1.5-1.4,1.9c-1,0.3-2.5,0.5-4.5,0.5c-2.2,0-3.8-0.4-4.8-1.3
			c-1-0.9-1.4-2.6-1.4-5.2v-3.5c0-2.2-0.1-4.6-0.2-7.2h-2.1c-0.2-0.6-0.4-1.2-0.4-1.8c0-0.5,0.1-0.8,0.3-1
			C133.5,94.3,133.8,94.2,134.2,94.2z"/>
		<path class="st0" d="M159.1,111.4h2.4c0.2,0.4,0.3,0.9,0.3,1.5c0,0.5-0.1,0.8-0.3,1c-0.2,0.2-0.6,0.3-1.1,0.3h-9.7
			c-0.2-0.6-0.3-1.1-0.3-1.6c0-0.4,0.1-0.7,0.3-0.9c0.2-0.2,0.5-0.3,0.9-0.3h1.7c0.1-1.7,0.1-3.6,0.1-5.5c0-3,0-5-0.1-5.9
			c0-1-0.2-1.7-0.3-2.1c-0.2-0.5-0.4-0.7-0.7-0.8c-0.3-0.1-0.8-0.2-1.5-0.2c-0.2-0.4-0.3-0.8-0.3-1.3c0-0.8,0.3-1.2,0.9-1.4
			c0.6-0.2,1.9-0.3,3.8-0.3c1.4,0,2.4,0.1,2.9,0.2c0.5,0.1,0.8,0.3,0.9,0.6c0.1,0.3,0.1,0.8,0.1,1.3v9.9
			C158.9,107.8,159,109.7,159.1,111.4z M155.4,91.2c-1.2,0-2.1-0.2-2.6-0.7c-0.5-0.5-0.8-1.1-0.8-2c0-0.9,0.3-1.6,1-2.2
			c0.7-0.6,1.7-0.9,2.9-0.9c1.3,0,2.2,0.2,2.7,0.7c0.5,0.5,0.8,1.1,0.8,1.9c0,0.9-0.3,1.6-1,2.2S156.8,91.2,155.4,91.2z"/>
		<path class="st0" d="M165.3,111.4c0.7-0.9,2.4-3.4,5.2-7.5c-1.2-1.8-2.1-3.2-2.7-4.1c-0.6-0.9-1.1-1.6-1.5-2
			c-0.4-0.5-0.7-0.7-1-0.8c-0.3-0.1-0.8-0.2-1.3-0.2c-0.2-0.4-0.3-0.9-0.3-1.5c0-0.6,0.3-1,1-1.2c0.7-0.2,2.2-0.3,4.4-0.3
			c0.4,0,1,0.1,1.6,0.2c0.6,0.2,1.1,0.5,1.3,0.9c0.3,0.5,0.7,1.3,1.2,2.5c0.5,1.2,1.3,2.7,2.4,4.4c1.2-1.9,2-3.5,2.6-4.7h-0.9
			c-0.2-0.5-0.4-1-0.4-1.5c0-0.5,0.1-0.9,0.3-1.1c0.2-0.2,0.5-0.4,1-0.4h6.1c0.2,0.5,0.4,0.9,0.4,1.5c0,0.6-0.1,1-0.3,1.2
			c-0.2,0.2-0.6,0.3-1.2,0.3h-0.1c-1.6,2-3.3,4.3-5.2,7.1c2.8,4.2,4.3,6.4,4.7,6.7c0.4,0.3,0.9,0.4,1.7,0.4c0.2,0.3,0.3,0.7,0.3,1.3
			c0,0.6-0.2,1-0.7,1.2c-0.5,0.2-1.3,0.3-2.3,0.3c-1.8,0-3,0-3.5-0.1c-0.5-0.1-0.9-0.3-1.2-0.7c-0.3-0.4-1.6-2.7-4.1-7.1
			c-1.4,2.3-2.3,4-2.6,5.1h1.3c0.2,0.4,0.3,0.9,0.3,1.5c0,0.5-0.1,0.8-0.3,1c-0.2,0.2-0.6,0.3-1.1,0.3h-6.6
			c-0.2-0.6-0.3-1.1-0.3-1.6c0-0.4,0.1-0.7,0.3-0.9c0.2-0.2,0.5-0.3,0.9-0.3H165.3z"/>
	</g>
	<circle class="st1" cx="91.9" cy="39.9" r="36.9"/>
	<path class="st2" d="M27.2,128.5c0,2.1-1.2,3.3-3.3,3.3h-2.3v-6.6h2.3C26,125.2,27.2,126.4,27.2,128.5z M26.1,128.5
		c0-1.5-0.8-2.4-2.2-2.4h-1.3v4.8h1.3C25.3,130.9,26.1,130,26.1,128.5z"/>
	<path class="st2" d="M33.7,130.9v0.9h-4.9v-6.6h4.8v0.9h-3.7v1.9h2.9v0.9h-2.9v2H33.7z"/>
	<path class="st2" d="M38.1,131.8h-1.3l-2.5-6.6h1.1l1.5,4.4l0.4,1.3l0.4-1.3l1.5-4.4h1.1L38.1,131.8z"/>
	<path class="st2" d="M46.7,130.9v0.9h-4.9v-6.6h4.8v0.9h-3.7v1.9h2.9v0.9h-2.9v2H46.7z"/>
	<path class="st2" d="M52.9,130.9v0.9h-4.7v-6.6h1.1v5.7H52.9z"/>
	<path class="st2" d="M59.9,128.5c0,2.1-1.2,3.4-3.1,3.4c-1.9,0-3.1-1.3-3.1-3.4c0-2.1,1.2-3.4,3.1-3.4
		C58.7,125.1,59.9,126.4,59.9,128.5z M54.7,128.5c0,1.6,0.8,2.5,2,2.5c1.3,0,2-0.9,2-2.5c0-1.6-0.8-2.5-2-2.5
		C55.5,126,54.7,126.9,54.7,128.5z"/>
	<path class="st2" d="M66.3,127.3c0,1.3-0.9,2.1-2.3,2.1h-1.5v2.5h-1.1v-6.6H64C65.4,125.2,66.3,126,66.3,127.3z M65.2,127.3
		c0-0.8-0.4-1.2-1.4-1.2h-1.3v2.3h1.3C64.8,128.4,65.2,128,65.2,127.3z"/>
	<path class="st2" d="M72.7,130.9v0.9h-4.9v-6.6h4.8v0.9h-3.7v1.9h2.9v0.9h-2.9v2H72.7z"/>
	<path class="st2" d="M76.6,129.2h-1.4v2.7h-1.1v-6.6h2.7c1.4,0,2.3,0.7,2.3,2c0,1-0.5,1.6-1.4,1.9l1.8,2.8h-1.2L76.6,129.2z
		 M75.2,128.3h1.5c0.9,0,1.3-0.4,1.3-1.1s-0.4-1.1-1.3-1.1h-1.5V128.3z"/>
	<path class="st2" d="M88.8,126.1h-2.3v5.7h-1.1v-5.7h-2.3v-0.9h5.6V126.1z"/>
	<path class="st2" d="M95.8,128.5c0,2.1-1.2,3.4-3.1,3.4c-1.9,0-3.1-1.3-3.1-3.4c0-2.1,1.2-3.4,3.1-3.4
		C94.6,125.1,95.8,126.4,95.8,128.5z M90.6,128.5c0,1.6,0.8,2.5,2,2.5c1.3,0,2-0.9,2-2.5c0-1.6-0.8-2.5-2-2.5
		C91.4,126,90.6,126.9,90.6,128.5z"/>
	<path class="st2" d="M103.2,128.5c0,2.1-1.2,3.4-3.1,3.4c-1.9,0-3.1-1.3-3.1-3.4c0-2.1,1.2-3.4,3.1-3.4
		C102,125.1,103.2,126.4,103.2,128.5z M98.1,128.5c0,1.6,0.8,2.5,2,2.5c1.3,0,2-0.9,2-2.5c0-1.6-0.8-2.5-2-2.5
		C98.9,126,98.1,126.9,98.1,128.5z"/>
	<path class="st2" d="M109.6,130.9v0.9h-4.7v-6.6h1.1v5.7H109.6z"/>
	<path class="st2" d="M115.8,126.5l-0.8,0.7c-0.4-0.8-0.9-1.1-1.8-1.1c-0.9,0-1.5,0.4-1.5,1c0,0.5,0.4,0.8,1.7,1
		c1.8,0.3,2.4,0.9,2.4,1.9c0,1.2-1.1,1.9-2.6,1.9c-1.4,0-2.3-0.5-2.9-1.3l0.8-0.8c0.4,0.8,1.1,1.2,2.1,1.2c0.9,0,1.5-0.3,1.5-0.9
		c0-0.5-0.4-0.7-1.6-1c-1.8-0.3-2.5-0.9-2.5-1.9c0-1.1,1-2,2.6-2C114.3,125.1,115.2,125.5,115.8,126.5z"/>
	<path class="st2" d="M125.4,127.3c0,1.3-0.9,2.1-2.3,2.1h-1.5v2.5h-1.1v-6.6h2.6C124.5,125.2,125.4,126,125.4,127.3z M124.3,127.3
		c0-0.8-0.4-1.2-1.4-1.2h-1.3v2.3h1.3C123.9,128.4,124.3,128,124.3,127.3z"/>
	<path class="st2" d="M131.6,130.9v0.9h-4.7v-6.6h1.1v5.7H131.6z"/>
	<path class="st2" d="M136.6,130.1h-2.8l-0.6,1.7h-1.1l2.5-6.6h1.3l2.5,6.6h-1.1L136.6,130.1z M136.3,129.2l-0.8-2.1l-0.3-1h0
		l-0.3,0.9l-0.8,2.1H136.3z"/>
	<path class="st2" d="M143.6,126.1h-2.3v5.7h-1.1v-5.7h-2.3v-0.9h5.6V126.1z"/>
	<path class="st2" d="M145.9,126.1v1.9h2.9v0.9h-2.9v2.9h-1.1v-6.6h4.8v0.9H145.9z"/>
	<path class="st2" d="M156.8,128.5c0,2.1-1.2,3.4-3.1,3.4c-1.9,0-3.1-1.3-3.1-3.4c0-2.1,1.2-3.4,3.1-3.4
		C155.6,125.1,156.8,126.4,156.8,128.5z M151.6,128.5c0,1.6,0.8,2.5,2,2.5c1.3,0,2-0.9,2-2.5c0-1.6-0.8-2.5-2-2.5
		C152.4,126,151.6,126.9,151.6,128.5z"/>
	<path class="st2" d="M160.8,129.2h-1.4v2.7h-1.1v-6.6h2.7c1.4,0,2.3,0.7,2.3,2c0,1-0.5,1.6-1.4,1.9l1.8,2.8h-1.2L160.8,129.2z
		 M159.4,128.3h1.5c0.9,0,1.3-0.4,1.3-1.1s-0.4-1.1-1.3-1.1h-1.5V128.3z"/>
	<path class="st2" d="M171.9,131.8h-1V128l0.1-1.8h0l-2,5.7H168l-2-5.7h0l0.1,1.8v3.8h-1v-6.6h1.6l1.3,3.8l0.5,1.6h0l0.5-1.6
		l1.3-3.8h1.6V131.8z"/>
	<path class="st0" d="M87.7,21.4l-17,28.2l3.8,6.8h34.1l3.8-6.8l-17-28.2L87.7,21.4L87.7,21.4z M82.5,47.4l9.1-15.1l9.1,15.1H82.5z"
		/>
</g>
</svg>
