<svg id="Camada_1" data-name="Camada 1" xmlns="http://www.w3.org/2000/svg" viewBox="0 0 981 744.41"><defs><style>.cls-1{fill:#ffb82a;}.cls-2{fill:#343c46;}.cls-3{fill:#ffe52c;}.cls-4{fill:#fff;stroke:#dba50e;stroke-miterlimit:10;stroke-width:2px;}</style></defs><title>logo-launcherPrancheta 1</title><path class="cls-1" d="M244.54,734.88H213.07V678.83h7.2V728h24.27Z"/><path class="cls-1" d="M278.83,734.88h-8L292,678.83h8.14l21.14,56.05h-8l-5.4-15.19H284.31Zm17.07-47.21L286.74,713h18.63l-9.16-25.29Z"/><path class="cls-1" d="M370,736.13q-9.32,0-15-6.11t-5.71-16V678.83h7.2v35.54q0,6.89,3.6,10.88t9.94,4q6.34,0,9.94-4t3.6-10.88V678.83h7.2v35.23q0,10.18-5.64,16.13T370,736.13Z"/><path class="cls-1" d="M431.49,734.88h-7.2V678.83h8.77l27.24,43.61h.31l-.31-10.8v-32.8h7.2v56.05H460l-28.5-45.72h-.31l.31,10.8Z"/><path class="cls-1" d="M527.87,736.13A28.27,28.27,0,0,1,507,727.76q-8.3-8.38-8.3-20.9T507,686q8.3-8.46,20.83-8.46,12.68,0,20.59,9.16l-5.17,5a19.14,19.14,0,0,0-15.42-7.28,21.15,21.15,0,0,0-15.58,6.26q-6.19,6.19-6.18,16.13T512.29,723a21.14,21.14,0,0,0,15.58,6.26q9.79,0,17-8.22l5.25,5.09a27.19,27.19,0,0,1-9.79,7.4A29.85,29.85,0,0,1,527.87,736.13Z"/><path class="cls-1" d="M589.24,734.88H582V678.83h7.2v24h28v-24h7.2v56.05h-7.2V709.59h-28Z"/><path class="cls-1" d="M692,678.83v6.89H666.43v17.77h23v6.73h-23V728H692v6.89H659.23V678.83Z"/><path class="cls-1" d="M732.35,734.88h-7.2V678.83h19.1a17.47,17.47,0,0,1,12.41,4.81A16.09,16.09,0,0,1,758,705.8a16.88,16.88,0,0,1-9.59,5.75l-.16.23L764,734.57v.31h-8.53l-15.11-22.7h-8Zm0-49.17v19.73h11.59a10.48,10.48,0,0,0,7.44-2.86,9.31,9.31,0,0,0,3.05-7.08,9.89,9.89,0,0,0-10-9.79Z"/><path class="cls-2" d="M14.4,520h7.53L32.58,487.6a50.49,50.49,0,0,1,10.17,4.2,21.27,21.27,0,0,1,7.1,5.92q2.42,3.34,2.42,16.46V520H88.64a23.15,23.15,0,0,1,1.83,9.15q0,4.09-1.51,5.49T83.15,536H52.27v42.5q0,18.51,3.12,25.18a11.18,11.18,0,0,0,10.38,6.94q7.26.27,17.7-5.11a15.63,15.63,0,0,1,3.12,9.58q0,7.32-7.69,9.85T55,627.48q-17.75,0-25.34-7.1T22,592.83V574.11Q22,556.36,21,536H10A24,24,0,0,1,8,526.66Q8,523,9.5,521.5T14.4,520Z"/><path class="cls-2" d="M102,525.26q0-3.87,2.85-5.06t35.56-2.15a71,71,0,0,1,0,12.48q13.56-8,24.53-10.76a79.7,79.7,0,0,1,19.37-2.8q3.87,0,5.16.92t1.29,4.25A46.06,46.06,0,0,1,189,534.46q-1.78,6.4-4.41,8.23t-8.34,2.69q-5.71.86-6.62.43t-6.08-7.21q-8,0-12.21,5.76T147.06,574q0,21.84.54,37.66h16.89a16.35,16.35,0,0,1,1.94,8q0,3.77-1.56,5.27t-6.08,1.51H103.92a21.64,21.64,0,0,1-1.94-8.5q0-3.33,1.51-4.79t4.84-1.45h7.85q.54-15.82.54-36.69,0-30.12-2.85-35.61t-10-5.49A20.81,20.81,0,0,1,102,525.26Z"/><path class="cls-2" d="M246.7,611.66h12.7a17.13,17.13,0,0,1,1.83,8q0,3.77-1.56,5.27t-6.08,1.51H201.94a22.69,22.69,0,0,1-1.83-8.5q0-3.33,1.51-4.79t4.84-1.45h8.82q.54-13.77.54-29.38,0-23.78-.38-31.58t-1.67-11.41q-1.29-3.6-4-4.52a25.76,25.76,0,0,0-7.86-.92,13.19,13.19,0,0,1-1.83-7q0-6,4.95-7.42t20.12-1.4q11.4,0,15.55.86t4.73,3.39a32.62,32.62,0,0,1,.59,7v52.94Q246.16,597.89,246.7,611.66ZM227,504.07q-9.68,0-14-3.71t-4.31-10.49a14.53,14.53,0,0,1,5.49-11.67q5.49-4.57,15.6-4.57,10.33,0,14.63,3.93a13.26,13.26,0,0,1,4.3,10.27,14.94,14.94,0,0,1-5.16,11.62Q238.41,504.07,227,504.07Z"/><path class="cls-2" d="M379.8,560.66q0,38.2.54,51h11.73a16.36,16.36,0,0,1,1.94,8q0,3.77-1.56,5.27t-6.08,1.51H341.71a22.69,22.69,0,0,1-1.83-8.5q0-3.33,1.51-4.79t4.84-1.45h2.69q.54-18.83.54-37.23,0-22-4-29.43t-13.07-7.48a13.61,13.61,0,0,0-9.9,4.47Q318,546.46,318,560.66v21.63q0,13.56.54,29.38h7.75a17.13,17.13,0,0,1,1.83,8q0,3.77-1.56,5.27t-6.08,1.51H274.89a21.64,21.64,0,0,1-1.94-8.5q0-3.33,1.51-4.79t4.84-1.45h7.85q.54-17.75.54-36.69,0-30.12-2.85-35.61t-10-5.49a20.81,20.81,0,0,1-1.94-8.61q0-3.87,2.85-5.06t35.56-2.15a69.83,69.83,0,0,1,0,12.37,91.86,91.86,0,0,1,22-10.38A64,64,0,0,1,351.28,517q10.65,0,16.35,3.28a18.58,18.58,0,0,1,8.07,8.66A84.44,84.44,0,0,1,395.4,520a61.52,61.52,0,0,1,17.32-3q14.1,0,21.47,6.67t7.37,26.9q0,52.94,1.94,57.08t8.39,4a20.75,20.75,0,0,1,1.61,8.07q0,3.87-2.53,5.27t-9.63,1.4q-17.43,0-22.06-.54t-6.35-3.5q-1.72-3-1.72-10v-38q0-22-4-29.43t-13.07-7.48a13.61,13.61,0,0,0-9.9,4.47Q379.79,546.46,379.8,560.66Z"/><path class="cls-2" d="M569.17,578.85q0,21.41,1.56,26.52t7.91,4.57a17.35,17.35,0,0,1,1.51,6.78q0,5.27-7.86,8a44,44,0,0,1-14.42,2.74q-5.06,0-7.1-1.56t-6.35-7.8a113.15,113.15,0,0,1-19.21,7.75,69.68,69.68,0,0,1-19.64,2.69q-13.77,0-21.63-7.26t-7.86-29.54q0-33.25-.38-41t-1.67-11.41q-1.29-3.6-3.44-4.52a16.6,16.6,0,0,0-6.24-.92,12.65,12.65,0,0,1-1.94-7q0-4.95,6-6.89t19-1.94q9.36,0,13.23,1.13t4.79,3.39q.91,2.26.92,15.17V576q0,21,4,27.44a12.57,12.57,0,0,0,11.3,6.46,21.48,21.48,0,0,0,10.11-2.42q4.63-2.42,5.81-6.35T538.83,587q0-28.51-.11-36.26a46.33,46.33,0,0,0-1.18-11.4q-1.08-3.66-2.74-4.57t-5.76-.92a12.64,12.64,0,0,1-1.94-7q0-4.95,6.08-6.89t17.05-1.94q9.36,0,13.23,1.13t4.79,3.87q.91,2.75.92,15.76Z"/><path class="cls-2" d="M595.42,525.26q0-3.87,2.85-5.06t35.56-2.15a71,71,0,0,1,0,12.48q13.56-8,24.53-10.76a79.7,79.7,0,0,1,19.37-2.8q3.87,0,5.16.92t1.29,4.25a46.06,46.06,0,0,1-1.78,12.32q-1.78,6.4-4.41,8.23t-8.34,2.69q-5.71.86-6.62.43T657,538.61q-8,0-12.21,5.76T640.51,574q0,21.84.54,37.66h16.89a16.35,16.35,0,0,1,1.94,8q0,3.77-1.56,5.27t-6.08,1.51H597.36a21.64,21.64,0,0,1-1.94-8.5q0-3.33,1.51-4.79t4.84-1.45h7.85q.54-15.82.54-36.69,0-30.12-2.85-35.61t-10-5.49A20.81,20.81,0,0,1,595.42,525.26Z"/><path class="cls-2" d="M699.9,520h7.53l10.65-32.39a50.49,50.49,0,0,1,10.17,4.2,21.27,21.27,0,0,1,7.1,5.92q2.42,3.34,2.42,16.46V520h36.37a23.15,23.15,0,0,1,1.83,9.15q0,4.09-1.51,5.49t-5.81,1.4H737.77v42.5q0,18.51,3.12,25.18a11.18,11.18,0,0,0,10.38,6.94q7.26.27,17.7-5.11a15.63,15.63,0,0,1,3.12,9.58q0,7.32-7.69,9.85t-23.94,2.53q-17.75,0-25.34-7.1t-7.59-27.55V574.11q0-17.75-1.08-38.09h-11a24,24,0,0,1-1.94-9.36q0-3.66,1.45-5.16T699.9,520Z"/><path class="cls-2" d="M832,611.66h12.7a17.13,17.13,0,0,1,1.83,8q0,3.77-1.56,5.27t-6.08,1.51H787.27a22.69,22.69,0,0,1-1.83-8.5q0-3.33,1.51-4.79t4.84-1.45h8.82q.54-13.77.54-29.38,0-23.78-.38-31.58t-1.67-11.41q-1.29-3.6-4-4.52a25.76,25.76,0,0,0-7.86-.92,13.19,13.19,0,0,1-1.83-7q0-6,4.95-7.42t20.12-1.4q11.4,0,15.55.86t4.73,3.39a32.62,32.62,0,0,1,.59,7v52.94Q831.49,597.89,832,611.66Zm-19.69-107.6q-9.68,0-14-3.71T794,489.86a14.53,14.53,0,0,1,5.49-11.67q5.49-4.57,15.6-4.57,10.33,0,14.63,3.93a13.26,13.26,0,0,1,4.3,10.27,14.94,14.94,0,0,1-5.16,11.62Q823.74,504.07,812.34,504.07Z"/><path class="cls-2" d="M865.49,611.66q5.38-7.42,27.65-39.7-9.58-14.63-14.47-21.84t-7.75-10.81q-2.85-3.6-5.49-4.52a21.26,21.26,0,0,0-6.83-.92,15.2,15.2,0,0,1-1.83-8q0-5.06,5.49-6.46t23.46-1.4a33.88,33.88,0,0,1,8.45,1.29,10.91,10.91,0,0,1,7,5q2.15,3.71,6.46,13.18a239.87,239.87,0,0,0,12.81,23.56,208.91,208.91,0,0,0,13.88-25.18H929.4a17.19,17.19,0,0,1-1.94-8q0-4.2,1.67-6.08t5.43-1.88h32.49a16.32,16.32,0,0,1,1.94,7.75q0,4.74-1.83,6.46t-6.46,1.72h-.65a439.41,439.41,0,0,0-27.44,37.77q22.06,33.25,25,35.61t9.2,2.37a12.54,12.54,0,0,1,1.61,6.88q0,5.06-4,6.46T952,626.4q-14.53,0-18.67-.59a9.26,9.26,0,0,1-6.4-3.6q-2.26-3-21.74-37.66-11.51,18.62-13.88,27.11h7.1a17.13,17.13,0,0,1,1.83,8q0,3.77-1.56,5.27t-6.08,1.51H857.31a22.69,22.69,0,0,1-1.83-8.5q0-3.33,1.51-4.79t4.84-1.45Z"/><circle class="cls-1" cx="488.52" cy="220.07" r="182.28"/><path class="cls-3" d="M488.73,457.21v.16s0-.05,0-.08,0,.05,0,.08v-.15c1.59-22.63,24.4-55.72,25.15-73.1s-25.08-35.32-25.39-35.49h0c-.32.17-26.06,18.18-25.32,35.49S487.14,434.58,488.73,457.21Zm-.17-105.29s22.61,19.67-1.17,42C487.39,393.91,465.37,374.53,488.57,351.92Z"/><circle class="cls-1" cx="488.52" cy="75.09" r="18.6"/><path class="cls-4" d="M574.09,179.52a309.08,309.08,0,0,1-28,95.72c6.42,4.06,15.46,12.48,17.67,20.9,4.91,18.69-8.25,35.79,4.13,41.3,9.07,4,28.91-8.26,44-78.46C624.07,203,588.83,184.64,574.09,179.52Z"/><path class="cls-4" d="M431.55,274.86c-10.16-21.34-23.1-55-27.8-95.6-14.21,4.72-51,22.69-38.68,79.73,15.14,70.2,35,82.49,44,78.46,12.4-5.52-.77-22.61,4.13-41.3C415.53,287.45,425.11,278.73,431.55,274.86Z"/><path class="cls-4" d="M476.95,301.06c1,20.48,6.56,35.62,13.25,35.62s12.23-15.14,13.26-35.62Z"/><path class="cls-4" d="M489.5,7.49h-1.13C396.61,55.28,416.8,170.85,416.8,170.85c7.8,68.82,40.38,116.55,40.38,116.55H520.7s32.57-47.73,40.38-116.55C561.08,170.85,581.27,55.28,489.5,7.49ZM489,155.56a14.48,14.48,0,1,1,14.49-14.49A14.48,14.48,0,0,1,489,155.56Zm-.45-55.16A24.48,24.48,0,1,1,513,75.92,24.48,24.48,0,0,1,488.53,100.4Z"/></svg>