<svg id="Camada_1" data-name="Camada 1" xmlns="http://www.w3.org/2000/svg" viewBox="0 0 676.84 678.58"><defs><style>.cls-1{fill:#674cd8;}.cls-2{fill:#fff;}.cls-3{fill:#f2f2f2;}.cls-4{fill:#d9d8d7;}.cls-5{fill:#386ff9;}.cls-6{fill:#f7dd43;}</style></defs><title>Prancheta 1</title><circle class="cls-1" cx="338.36" cy="338.49" r="335.48"/><polygon class="cls-2" points="339.04 540.85 239.23 483.22 239.23 367.98 339.04 425.61 339.04 540.85"/><polygon class="cls-3" points="339.04 310.36 239.23 367.98 339.04 425.61 438.84 367.98 339.04 310.36"/><polygon class="cls-4" points="339.04 540.85 438.83 483.22 438.83 367.98 339.04 425.61 339.04 540.85"/><polygon class="cls-5" points="438.83 367.98 339.04 310.36 339.04 195.12 438.83 252.74 438.83 367.98"/><polygon class="cls-3" points="438.83 137.49 339.04 195.12 438.83 252.74 538.64 195.12 438.83 137.49"/><polygon class="cls-6" points="438.83 367.98 538.64 310.36 538.64 195.12 438.83 252.74 438.83 367.98"/><path class="cls-3" d="M239.23,369.32a1.37,1.37,0,0,1-.67-.18l-99.8-57.62a1.34,1.34,0,0,1-.67-1.17V195.12a1.34,1.34,0,0,1,2-1.17l99.8,57.62a1.34,1.34,0,0,1,.67,1.17V368a1.36,1.36,0,0,1-.67,1.17A1.34,1.34,0,0,1,239.23,369.32Zm-98.46-59.74,97.12,56.07V253.51l-97.12-56.06Z"/><path class="cls-3" d="M239.24,254.08a1.34,1.34,0,0,1-.67-.18l-99.81-57.62a1.33,1.33,0,0,1-.67-1.16,1.35,1.35,0,0,1,.67-1.17l99.81-57.62a1.34,1.34,0,0,1,1.34,0L339.71,194a1.35,1.35,0,0,1,0,2.33l-99.8,57.62A1.33,1.33,0,0,1,239.24,254.08Zm-97.12-59,97.12,56.07,97.11-56.07L239.24,139Z"/><path class="cls-3" d="M339,311.7a1.34,1.34,0,0,1-.67-.18l-7-4a1.35,1.35,0,0,1,1.34-2.33l7,4a1.33,1.33,0,0,1,.49,1.84A1.35,1.35,0,0,1,339,311.7Z"/><path class="cls-3" d="M319.78,300.59a1.38,1.38,0,0,1-.67-.18l-12.26-7.09A1.34,1.34,0,0,1,308.2,291l12.27,7.08a1.35,1.35,0,0,1-.68,2.51Zm-24.52-14.15a1.36,1.36,0,0,1-.67-.18l-12.26-7.08a1.34,1.34,0,1,1,1.34-2.33l12.26,7.08a1.34,1.34,0,0,1,.49,1.84A1.36,1.36,0,0,1,295.26,286.43Zm-24.52-14.16a1.33,1.33,0,0,1-.67-.18L257.81,265a1.34,1.34,0,1,1,1.34-2.33l12.26,7.08a1.35,1.35,0,0,1-.68,2.51Z"/><path class="cls-3" d="M246.21,258.11a1.34,1.34,0,0,1-.67-.18l-6.31-3.65-6.32,3.65a1.34,1.34,0,1,1-1.34-2.33l7-4a1.34,1.34,0,0,1,1.35,0l7,4a1.34,1.34,0,0,1-.68,2.5Z"/><path class="cls-3" d="M158.67,300.59a1.35,1.35,0,0,1-.67-2.51L170.26,291a1.34,1.34,0,1,1,1.34,2.33l-12.26,7.09A1.43,1.43,0,0,1,158.67,300.59Zm24.52-14.15a1.35,1.35,0,0,1-.68-2.51l12.26-7.08a1.34,1.34,0,0,1,1.35,2.33l-12.27,7.08A1.29,1.29,0,0,1,183.19,286.43Zm24.52-14.16a1.35,1.35,0,0,1-.67-2.51l12.27-7.08a1.34,1.34,0,0,1,1.34,2.33l-12.27,7.08A1.3,1.3,0,0,1,207.72,272.27Z"/><path class="cls-3" d="M139.43,311.7a1.34,1.34,0,0,1-.68-2.5l7-4a1.35,1.35,0,0,1,1.34,2.33l-7,4A1.34,1.34,0,0,1,139.43,311.7Z"/><path class="cls-3" d="M239.23,369.32a1.37,1.37,0,0,1-.67-.18,1.35,1.35,0,0,1-.67-1.17V252.74a1.36,1.36,0,0,1,.67-1.17l99.8-57.62a1.35,1.35,0,0,1,1.34,0,1.33,1.33,0,0,1,.67,1.17V310.36a1.35,1.35,0,0,1-.67,1.17l-99.8,57.62A1.35,1.35,0,0,1,239.23,369.32Zm1.34-115.81V365.65l97.11-56.07V197.45Z"/><path class="cls-3" d="M239.24,146.9a1.35,1.35,0,0,1-1.34-1.34v-8.07a1.34,1.34,0,0,1,2.69,0v8.07A1.35,1.35,0,0,1,239.24,146.9Z"/><path class="cls-3" d="M239.23,231.86h0a1.35,1.35,0,0,1-1.34-1.34V216.35a1.35,1.35,0,0,1,1.34-1.34h0a1.34,1.34,0,0,1,1.34,1.34v14.16A1.35,1.35,0,0,1,239.23,231.86Zm0-28.32a1.35,1.35,0,0,1-1.34-1.34V188a1.34,1.34,0,1,1,2.69,0v14.16A1.34,1.34,0,0,1,239.23,203.54Zm0-28.32a1.34,1.34,0,0,1-1.34-1.34V159.72a1.34,1.34,0,0,1,2.69,0v14.16A1.35,1.35,0,0,1,239.24,175.22Z"/><path class="cls-3" d="M239.23,254.08a1.34,1.34,0,0,1-1.34-1.34v-8.07a1.34,1.34,0,0,1,2.69,0v8.07A1.35,1.35,0,0,1,239.23,254.08Z"/></svg>