<svg id="Camada_1" data-name="Camada 1" xmlns="http://www.w3.org/2000/svg" viewBox="0 0 1006.74 240.47"><defs><style>.cls-1{fill:#343c46;}.cls-2{font-size:54.4px;font-family:Roboto-Regular, Roboto;letter-spacing:0.29em;}.cls-2,.cls-5{fill:#674cd8;}.cls-3{letter-spacing:0.3em;}.cls-4{letter-spacing:0.29em;}.cls-6{fill:#fff;}.cls-7{fill:#f2f2f2;}.cls-8{fill:#d9d8d7;}.cls-9{fill:#386ff9;}.cls-10{fill:#f7dd43;}</style></defs><title>logo-toolbox-widePrancheta 1</title><path class="cls-1" d="M295.08,56.35h5.57l7.88-24A37.34,37.34,0,0,1,316,35.5a15.73,15.73,0,0,1,5.25,4.38q1.79,2.47,1.79,12.18v4.3H350a17.12,17.12,0,0,1,1.35,6.76q0,3-1.11,4.06t-4.3,1H323.09V99.64q0,13.69,2.31,18.62a8.27,8.27,0,0,0,7.68,5.13q5.37.2,13.09-3.78a11.56,11.56,0,0,1,2.31,7.08q0,5.41-5.69,7.28t-17.71,1.87q-13.13,0-18.74-5.25t-5.61-20.37V96.38q0-13.13-.8-28.17h-8.12a17.78,17.78,0,0,1-1.43-6.92,5.43,5.43,0,0,1,1.07-3.82A4.89,4.89,0,0,1,295.08,56.35Z"/><path class="cls-1" d="M359.86,60.25q0-2.87,2.11-3.74t26.3-1.59a52.5,52.5,0,0,1,0,9.23,71.8,71.8,0,0,1,18.14-8,58.94,58.94,0,0,1,14.32-2.07,7.28,7.28,0,0,1,3.82.68q1,.68,1,3.14a34.07,34.07,0,0,1-1.31,9.11q-1.31,4.73-3.26,6.09a15.08,15.08,0,0,1-6.17,2q-4.22.64-4.89.32t-4.5-5.33a10.55,10.55,0,0,0-9,4.26q-3.14,4.26-3.14,21.92,0,16.16.4,27.85h12.49a12.09,12.09,0,0,1,1.43,5.89q0,2.79-1.15,3.9t-4.5,1.11H361.29a16,16,0,0,1-1.43-6.29,4.76,4.76,0,0,1,1.11-3.54,5,5,0,0,1,3.58-1.07h5.81q.4-11.7.4-27.14,0-22.28-2.11-26.34t-7.36-4.06A15.39,15.39,0,0,1,359.86,60.25Z"/><path class="cls-1" d="M466.89,124.15h9.39a12.67,12.67,0,0,1,1.35,5.89q0,2.79-1.15,3.9t-4.5,1.11h-38.2a16.78,16.78,0,0,1-1.35-6.29,4.76,4.76,0,0,1,1.11-3.54,5,5,0,0,1,3.58-1.07h6.53q.4-10.19.4-21.73,0-17.58-.28-23.36a31.72,31.72,0,0,0-1.23-8.44,5,5,0,0,0-2.94-3.34,19.05,19.05,0,0,0-5.81-.68,9.76,9.76,0,0,1-1.35-5.17q0-4.46,3.66-5.49t14.88-1a67.55,67.55,0,0,1,11.5.64q3.06.64,3.5,2.51a24.12,24.12,0,0,1,.44,5.21v39.15Q466.49,114,466.89,124.15ZM452.33,44.58q-7.16,0-10.34-2.75a9.69,9.69,0,0,1-3.18-7.76,10.75,10.75,0,0,1,4.06-8.63q4.06-3.38,11.54-3.38,7.64,0,10.82,2.9a9.81,9.81,0,0,1,3.18,7.6,11.05,11.05,0,0,1-3.82,8.6Q460.76,44.58,452.33,44.58Z"/><path class="cls-1" d="M565.33,86.43q0,28.25.4,37.72h8.67a12.1,12.1,0,0,1,1.43,5.89q0,2.79-1.15,3.9t-4.5,1.11h-33a16.78,16.78,0,0,1-1.35-6.29,4.76,4.76,0,0,1,1.11-3.54,5,5,0,0,1,3.58-1.07h2q.4-13.93.4-27.53,0-16.23-3-21.76t-9.67-5.53a10.07,10.07,0,0,0-7.32,3.3q-3.26,3.3-3.26,13.81v16q0,10,.4,21.73h5.73a12.67,12.67,0,0,1,1.35,5.89q0,2.79-1.15,3.9t-4.5,1.11H487.74a16,16,0,0,1-1.43-6.29,4.76,4.76,0,0,1,1.11-3.54,5,5,0,0,1,3.58-1.07h5.81q.4-13.13.4-27.14,0-22.28-2.11-26.34t-7.36-4.06a15.39,15.39,0,0,1-1.43-6.37q0-2.87,2.11-3.74t26.3-1.59a51.65,51.65,0,0,1,0,9.15A67.94,67.94,0,0,1,531,56.39a47.31,47.31,0,0,1,13.25-2.27q7.88,0,12.1,2.43a13.74,13.74,0,0,1,6,6.41,62.45,62.45,0,0,1,14.56-6.61,45.5,45.5,0,0,1,12.81-2.23q10.42,0,15.88,4.93T611,79q0,39.15,1.43,42.22t6.21,3a15.35,15.35,0,0,1,1.19,6q0,2.86-1.87,3.9t-7.12,1q-12.89,0-16.31-.4t-4.69-2.59q-1.27-2.19-1.27-7.36V96.62q0-16.23-3-21.76t-9.67-5.53a10.07,10.07,0,0,0-7.32,3.3Q565.33,75.93,565.33,86.43Z"/><path class="cls-1" d="M705.39,99.88q0,15.84,1.15,19.62t5.85,3.38a12.83,12.83,0,0,1,1.12,5q0,3.9-5.81,5.93a32.56,32.56,0,0,1-10.66,2q-3.74,0-5.25-1.15a29.23,29.23,0,0,1-4.69-5.77,83.68,83.68,0,0,1-14.2,5.73,51.53,51.53,0,0,1-14.52,2q-10.19,0-16-5.37t-5.81-21.84q0-24.59-.28-30.36A31.66,31.66,0,0,0,635,70.64q-1-2.67-2.55-3.34a12.28,12.28,0,0,0-4.62-.68,9.36,9.36,0,0,1-1.43-5.17q0-3.66,4.46-5.09T645,54.92q6.92,0,9.79.84t3.54,2.51q.68,1.67.68,11.22V97.81q0,15.52,2.94,20.29a9.29,9.29,0,0,0,8.36,4.77,15.89,15.89,0,0,0,7.48-1.79,8,8,0,0,0,4.3-4.69q.87-2.9.88-10.46,0-21.09-.08-26.82a34.27,34.27,0,0,0-.88-8.43q-.8-2.7-2-3.38a9.56,9.56,0,0,0-4.26-.68,9.35,9.35,0,0,1-1.43-5.17q0-3.66,4.5-5.09t12.61-1.43q6.92,0,9.79.84t3.54,2.86q.68,2,.68,11.66Z"/><path class="cls-1" d="M724.8,60.25q0-2.87,2.11-3.74t26.3-1.59a52.5,52.5,0,0,1,0,9.23,71.8,71.8,0,0,1,18.14-8,58.94,58.94,0,0,1,14.32-2.07,7.28,7.28,0,0,1,3.82.68q1,.68,1,3.14a34.07,34.07,0,0,1-1.31,9.11q-1.31,4.73-3.26,6.09a15.08,15.08,0,0,1-6.17,2q-4.22.64-4.89.32t-4.5-5.33a10.55,10.55,0,0,0-9,4.26q-3.14,4.26-3.14,21.92,0,16.16.4,27.85H771a12.09,12.09,0,0,1,1.43,5.89q0,2.79-1.15,3.9t-4.5,1.11H726.23a16,16,0,0,1-1.43-6.29,4.76,4.76,0,0,1,1.11-3.54,5,5,0,0,1,3.58-1.07h5.81q.4-11.7.4-27.14,0-22.28-2.11-26.34t-7.36-4.06A15.39,15.39,0,0,1,724.8,60.25Z"/><path class="cls-1" d="M802.07,56.35h5.57l7.88-24A37.34,37.34,0,0,1,823,35.5a15.73,15.73,0,0,1,5.25,4.38q1.79,2.47,1.79,12.18v4.3H857a17.12,17.12,0,0,1,1.35,6.76q0,3-1.11,4.06t-4.3,1H830.08V99.64q0,13.69,2.31,18.62a8.27,8.27,0,0,0,7.68,5.13q5.37.2,13.09-3.78a11.56,11.56,0,0,1,2.31,7.08q0,5.41-5.69,7.28t-17.71,1.87q-13.13,0-18.74-5.25t-5.61-20.37V96.38q0-13.13-.8-28.17h-8.12a17.78,17.78,0,0,1-1.43-6.92,5.43,5.43,0,0,1,1.07-3.82A4.89,4.89,0,0,1,802.07,56.35Z"/><path class="cls-1" d="M899.79,124.15h9.39a12.67,12.67,0,0,1,1.35,5.89q0,2.79-1.15,3.9t-4.5,1.11h-38.2a16.78,16.78,0,0,1-1.35-6.29,4.76,4.76,0,0,1,1.11-3.54,5,5,0,0,1,3.58-1.07h6.53q.4-10.19.4-21.73,0-17.58-.28-23.36a31.72,31.72,0,0,0-1.23-8.44,5,5,0,0,0-2.94-3.34,19.05,19.05,0,0,0-5.81-.68,9.76,9.76,0,0,1-1.35-5.17Q865.34,57,869,56t14.88-1a67.55,67.55,0,0,1,11.5.64q3.06.64,3.5,2.51a24.12,24.12,0,0,1,.44,5.21v39.15Q899.4,114,899.79,124.15ZM885.23,44.58q-7.16,0-10.34-2.75a9.69,9.69,0,0,1-3.18-7.76,10.75,10.75,0,0,1,4.06-8.63q4.06-3.38,11.54-3.38,7.64,0,10.82,2.9a9.81,9.81,0,0,1,3.18,7.6,11.05,11.05,0,0,1-3.82,8.6Q893.67,44.58,885.23,44.58Z"/><path class="cls-1" d="M924.54,124.15q4-5.49,20.45-29.36Q937.91,84,934.29,78.64t-5.73-8a9.65,9.65,0,0,0-4.06-3.34,15.73,15.73,0,0,0-5.05-.68,11.24,11.24,0,0,1-1.35-5.89q0-3.74,4.06-4.77t17.35-1a25.06,25.06,0,0,1,6.25,1,8.07,8.07,0,0,1,5.21,3.7q1.59,2.75,4.77,9.75a177.41,177.41,0,0,0,9.47,17.43,154.51,154.51,0,0,0,10.26-18.62h-3.66a12.71,12.71,0,0,1-1.43-5.89,6.7,6.7,0,0,1,1.23-4.5,5.12,5.12,0,0,1,4-1.39h24a12.07,12.07,0,0,1,1.43,5.73q0,3.5-1.35,4.77T995,68.13h-.48A325,325,0,0,0,974.2,96.06q16.31,24.59,18.5,26.34t6.8,1.75a9.27,9.27,0,0,1,1.19,5.09q0,3.74-2.94,4.77t-9.23,1a129.26,129.26,0,0,1-13.81-.44A6.85,6.85,0,0,1,970,132q-1.67-2.23-16.08-27.85-8.52,13.77-10.26,20.05h5.25a12.67,12.67,0,0,1,1.35,5.89q0,2.79-1.15,3.9t-4.5,1.11H918.5a16.78,16.78,0,0,1-1.35-6.29,4.76,4.76,0,0,1,1.11-3.54,5,5,0,0,1,3.58-1.07Z"/><text class="cls-2" transform="translate(467.01 214.55)">T<tspan class="cls-3" x="48.04" y="0">OOLB</tspan><tspan class="cls-4" x="253.34" y="0">O</tspan><tspan class="cls-3" x="306.9" y="0">X</tspan></text><circle class="cls-5" cx="120.94" cy="118.73" r="117.13"/><polygon class="cls-6" points="121.18 189.38 86.33 169.27 86.33 129.03 121.18 149.15 121.18 189.38"/><polygon class="cls-7" points="121.18 108.91 86.33 129.03 121.18 149.15 156.03 129.03 121.18 108.91"/><polygon class="cls-8" points="121.18 189.38 156.02 169.27 156.02 129.03 121.18 149.15 121.18 189.38"/><polygon class="cls-9" points="156.02 129.03 121.18 108.91 121.18 68.67 156.02 88.79 156.02 129.03"/><polygon class="cls-7" points="156.02 48.55 121.18 68.67 156.02 88.79 190.87 68.67 156.02 48.55"/><polygon class="cls-10" points="156.02 129.03 190.87 108.91 190.87 68.67 156.02 88.79 156.02 129.03"/><path class="cls-7" d="M86.33,129.5a.48.48,0,0,1-.24-.06L51.25,109.32a.47.47,0,0,1-.23-.41V68.67a.47.47,0,0,1,.7-.41L86.57,88.38a.47.47,0,0,1,.23.41V129a.47.47,0,0,1-.23.41A.47.47,0,0,1,86.33,129.5ZM52,108.64l33.91,19.58V89.06L52,69.49Z"/><path class="cls-7" d="M86.34,89.26a.47.47,0,0,1-.23-.06L51.25,69.08a.47.47,0,0,1-.23-.4.47.47,0,0,1,.23-.41L86.1,48.15a.47.47,0,0,1,.47,0l34.85,20.12a.47.47,0,0,1,0,.81L86.57,89.2A.46.46,0,0,1,86.34,89.26ZM52.43,68.68,86.34,88.25l33.91-19.58L86.34,49.1Z"/><path class="cls-7" d="M121.18,109.38a.47.47,0,0,1-.24-.06l-2.44-1.41a.47.47,0,0,1,.47-.81l2.44,1.41a.46.46,0,0,1,.17.64A.47.47,0,0,1,121.18,109.38Z"/><path class="cls-7" d="M114.46,105.5a.48.48,0,0,1-.23-.06L109.94,103a.47.47,0,0,1,.47-.81l4.28,2.47a.47.47,0,0,1-.24.88Zm-8.56-4.94a.48.48,0,0,1-.24-.06L101.38,98a.47.47,0,1,1,.47-.81l4.28,2.47a.47.47,0,0,1,.17.64A.47.47,0,0,1,105.9,100.56Zm-8.56-4.94a.47.47,0,0,1-.23-.06l-4.28-2.47a.47.47,0,1,1,.47-.81l4.28,2.47a.47.47,0,0,1-.24.88Z"/><path class="cls-7" d="M88.77,90.67a.47.47,0,0,1-.23-.06l-2.2-1.27-2.21,1.27a.47.47,0,1,1-.47-.81l2.44-1.41a.47.47,0,0,1,.47,0L89,89.79a.47.47,0,0,1-.24.87Z"/><path class="cls-7" d="M58.21,105.5a.47.47,0,0,1-.23-.88l4.28-2.47a.47.47,0,0,1,.47.81l-4.28,2.47A.5.5,0,0,1,58.21,105.5Zm8.56-4.94a.47.47,0,0,1-.24-.88l4.28-2.47a.47.47,0,0,1,.47.81L67,100.49A.45.45,0,0,1,66.77,100.56Zm8.56-4.94a.47.47,0,0,1-.24-.88l4.28-2.47a.47.47,0,0,1,.47.81l-4.28,2.47A.46.46,0,0,1,75.33,95.61Z"/><path class="cls-7" d="M51.49,109.38a.47.47,0,0,1-.24-.87l2.44-1.41a.47.47,0,0,1,.47.81l-2.44,1.41A.47.47,0,0,1,51.49,109.38Z"/><path class="cls-7" d="M86.33,129.5a.48.48,0,0,1-.24-.06.47.47,0,0,1-.23-.41V88.79a.47.47,0,0,1,.23-.41l34.85-20.12a.47.47,0,0,1,.47,0,.46.46,0,0,1,.24.41v40.24a.47.47,0,0,1-.24.41L86.57,129.44A.47.47,0,0,1,86.33,129.5Zm.47-40.44v39.15l33.91-19.58V69.49Z"/><path class="cls-7" d="M86.34,51.84a.47.47,0,0,1-.47-.47V48.55a.47.47,0,1,1,.94,0v2.82A.47.47,0,0,1,86.34,51.84Z"/><path class="cls-7" d="M86.33,81.5h0a.47.47,0,0,1-.47-.47V76.09a.47.47,0,0,1,.47-.47h0a.47.47,0,0,1,.47.47V81A.47.47,0,0,1,86.33,81.5Zm0-9.89a.47.47,0,0,1-.47-.47V66.2a.47.47,0,1,1,.94,0v4.94A.47.47,0,0,1,86.33,71.61Zm0-9.89a.47.47,0,0,1-.47-.47V56.31a.47.47,0,0,1,.94,0v4.94A.47.47,0,0,1,86.34,61.73Z"/><path class="cls-7" d="M86.33,89.26a.47.47,0,0,1-.47-.47V86a.47.47,0,1,1,.94,0v2.82A.47.47,0,0,1,86.33,89.26Z"/></svg>