<svg id="Camada_1" data-name="Camada 1" xmlns="http://www.w3.org/2000/svg" viewBox="0 0 1024 678.58"><defs><style>.cls-1{fill:#343c46;}.cls-2{fill:#674cd8;}.cls-3{fill:#fff;}.cls-4{fill:#f2f2f2;}.cls-5{fill:#d9d8d7;}.cls-6{fill:#386ff9;}.cls-7{fill:#f7dd43;}</style></defs><title>Prancheta 1</title><path class="cls-1" d="M11.61,437.78h7.92L30.75,403.7a53.13,53.13,0,0,1,10.7,4.41,22.38,22.38,0,0,1,7.47,6.23q2.55,3.51,2.55,17.32v6.11H89.73a24.36,24.36,0,0,1,1.92,9.62q0,4.3-1.58,5.77T84,454.65H51.47v44.72q0,19.47,3.28,26.49a11.76,11.76,0,0,0,10.93,7.3q7.64.29,18.62-5.38a16.45,16.45,0,0,1,3.28,10.08q0,7.7-8.1,10.36T54.3,550.88q-18.68,0-26.66-7.47t-8-29v-19.7q0-18.68-1.13-40.08H7a25.29,25.29,0,0,1-2-9.85q0-3.85,1.53-5.43T11.61,437.78Z"/><path class="cls-1" d="M103.77,443.33q0-4.08,3-5.32t37.42-2.26a74.7,74.7,0,0,1,0,13.13q14.27-8.38,25.81-11.32a83.86,83.86,0,0,1,20.38-2.94q4.07,0,5.43,1t1.36,4.47a48.47,48.47,0,0,1-1.87,13q-1.87,6.74-4.64,8.66t-8.77,2.83q-6,.91-7,.45t-6.4-7.59q-8.38,0-12.85,6.06t-4.47,31.19q0,23,.57,39.63h17.77a17.2,17.2,0,0,1,2,8.38q0,4-1.64,5.55t-6.4,1.58H105.81a22.77,22.77,0,0,1-2-8.94q0-3.51,1.58-5t5.09-1.53h8.26q.57-16.64.57-38.61,0-31.7-3-37.47t-10.47-5.78A21.9,21.9,0,0,1,103.77,443.33Z"/><path class="cls-1" d="M256,534.24h13.36a18,18,0,0,1,1.92,8.38q0,4-1.64,5.55t-6.4,1.58H208.95a23.88,23.88,0,0,1-1.92-8.94q0-3.51,1.58-5t5.09-1.53H223q.56-14.49.57-30.91,0-25-.4-33.23t-1.76-12q-1.36-3.79-4.19-4.76a27.11,27.11,0,0,0-8.27-1A13.88,13.88,0,0,1,207,445q0-6.34,5.21-7.81t21.17-1.47q12,0,16.36.91t5,3.57a34.32,34.32,0,0,1,.62,7.41v55.7Q255.48,519.75,256,534.24ZM235.33,421q-10.19,0-14.72-3.91t-4.53-11a15.29,15.29,0,0,1,5.78-12.28q5.77-4.81,16.42-4.81,10.87,0,15.4,4.13a14,14,0,0,1,4.53,10.81,15.73,15.73,0,0,1-5.43,12.23Q247.33,421,235.33,421Z"/><path class="cls-1" d="M396.1,480.58q0,40.19.57,53.66H409a17.22,17.22,0,0,1,2,8.38q0,4-1.64,5.55t-6.4,1.58H356a23.88,23.88,0,0,1-1.92-8.94q0-3.51,1.58-5t5.09-1.53h2.83q.57-19.81.57-39.17,0-23.1-4.25-31t-13.76-7.87a14.33,14.33,0,0,0-10.42,4.7q-4.64,4.7-4.64,19.64v22.76q0,14.27.57,30.91h8.15a18,18,0,0,1,1.93,8.38q0,4-1.64,5.55t-6.4,1.58h-48a22.77,22.77,0,0,1-2-8.94q0-3.51,1.58-5t5.09-1.53h8.26q.57-18.68.57-38.61,0-31.7-3-37.47t-10.47-5.78a21.9,21.9,0,0,1-2-9.06q0-4.08,3-5.32t37.42-2.26a73.48,73.48,0,0,1,0,13,96.65,96.65,0,0,1,23.15-10.93,67.31,67.31,0,0,1,18.85-3.23q11.21,0,17.21,3.45a19.55,19.55,0,0,1,8.49,9.11,88.85,88.85,0,0,1,20.72-9.4,64.73,64.73,0,0,1,18.23-3.17q14.83,0,22.59,7t7.76,28.3q0,55.7,2,60.06t8.83,4.25a21.83,21.83,0,0,1,1.7,8.49q0,4.07-2.66,5.55t-10.13,1.47q-18.34,0-23.21-.57T431,545.5q-1.81-3.11-1.81-10.47v-40q0-23.1-4.25-31t-13.76-7.87a14.33,14.33,0,0,0-10.42,4.7Q396.09,465.63,396.1,480.58Z"/><path class="cls-1" d="M595.36,499.71q0,22.53,1.64,27.91t8.32,4.81a18.25,18.25,0,0,1,1.59,7.13q0,5.55-8.27,8.43a46.32,46.32,0,0,1-15.17,2.89q-5.32,0-7.47-1.64T569.32,541a119.06,119.06,0,0,1-20.21,8.15A73.32,73.32,0,0,1,528.44,552q-14.49,0-22.76-7.64t-8.27-31.08q0-35-.4-43.19t-1.76-12q-1.36-3.79-3.62-4.76a17.47,17.47,0,0,0-6.57-1,13.31,13.31,0,0,1-2-7.36q0-5.21,6.34-7.25t20-2q9.85,0,13.93,1.19t5,3.57q1,2.38,1,16v40.3q0,22.08,4.19,28.87a13.22,13.22,0,0,0,11.89,6.79,22.6,22.6,0,0,0,10.64-2.55q4.87-2.55,6.11-6.68t1.25-14.89q0-30-.11-38.16t-1.25-12q-1.13-3.85-2.89-4.81t-6.06-1a13.3,13.3,0,0,1-2-7.36q0-5.21,6.4-7.25t17.95-2q9.85,0,13.93,1.19t5,4.08q1,2.89,1,16.59Z"/><path class="cls-1" d="M623,443.33q0-4.08,3-5.32t37.42-2.26a74.7,74.7,0,0,1,0,13.13q14.27-8.38,25.81-11.32a83.86,83.86,0,0,1,20.38-2.94q4.07,0,5.43,1t1.36,4.47a48.47,48.47,0,0,1-1.87,13q-1.87,6.74-4.64,8.66t-8.77,2.83q-6,.91-7,.45t-6.4-7.59q-8.38,0-12.85,6.06t-4.47,31.19q0,23,.57,39.63h17.77a17.2,17.2,0,0,1,2,8.38q0,4-1.64,5.55t-6.4,1.58H625a22.77,22.77,0,0,1-2-8.94q0-3.51,1.58-5t5.09-1.53h8.26q.57-16.64.57-38.61,0-31.7-3-37.47T625,452.38A21.9,21.9,0,0,1,623,443.33Z"/><path class="cls-1" d="M732.91,437.78h7.92L752,403.7a53.13,53.13,0,0,1,10.7,4.41,22.38,22.38,0,0,1,7.47,6.23q2.55,3.51,2.55,17.32v6.11H811A24.36,24.36,0,0,1,813,447.4q0,4.3-1.58,5.77t-6.11,1.47H772.76v44.72q0,19.47,3.28,26.49a11.76,11.76,0,0,0,10.93,7.3q7.64.29,18.62-5.38a16.45,16.45,0,0,1,3.28,10.08q0,7.7-8.1,10.36t-25.19,2.66q-18.68,0-26.66-7.47t-8-29v-19.7q0-18.68-1.13-40.08H728.27a25.29,25.29,0,0,1-2-9.85q0-3.85,1.53-5.43T732.91,437.78Z"/><path class="cls-1" d="M871.94,534.24H885.3a18,18,0,0,1,1.92,8.38q0,4-1.64,5.55t-6.4,1.58H824.84a23.88,23.88,0,0,1-1.92-8.94q0-3.51,1.58-5t5.09-1.53h9.28q.56-14.49.57-30.91,0-25-.4-33.23t-1.76-12q-1.36-3.79-4.19-4.76a27.11,27.11,0,0,0-8.27-1,13.88,13.88,0,0,1-1.92-7.36q0-6.34,5.21-7.81t21.17-1.47q12,0,16.36.91t5,3.57a34.32,34.32,0,0,1,.62,7.41v55.7Q871.37,519.75,871.94,534.24ZM851.22,421q-10.19,0-14.72-3.91t-4.53-11a15.29,15.29,0,0,1,5.78-12.28q5.77-4.81,16.42-4.81,10.87,0,15.4,4.13a14,14,0,0,1,4.53,10.81,15.73,15.73,0,0,1-5.43,12.23Q863.22,421,851.22,421Z"/><path class="cls-1" d="M907.15,534.24q5.66-7.81,29.1-41.78-10.08-15.4-15.23-23t-8.15-11.38q-3-3.79-5.77-4.76a22.38,22.38,0,0,0-7.19-1A16,16,0,0,1,898,444q0-5.32,5.78-6.79t24.68-1.47a35.65,35.65,0,0,1,8.89,1.36,11.48,11.48,0,0,1,7.41,5.27q2.26,3.91,6.79,13.87A252.39,252.39,0,0,0,965,481a219.82,219.82,0,0,0,14.6-26.49H974.4a18.09,18.09,0,0,1-2-8.38q0-4.42,1.76-6.4t5.72-2H1014a17.17,17.17,0,0,1,2,8.15q0,5-1.92,6.79t-6.79,1.81h-.68a462.36,462.36,0,0,0-28.87,39.74q23.21,35,26.32,37.47t9.68,2.49a13.19,13.19,0,0,1,1.7,7.24q0,5.32-4.19,6.79t-13.13,1.47q-15.28,0-19.64-.62a9.74,9.74,0,0,1-6.74-3.79q-2.38-3.17-22.87-39.62-12.12,19.59-14.6,28.53h7.47a18,18,0,0,1,1.93,8.38q0,4-1.64,5.55t-6.4,1.58H898.55a23.88,23.88,0,0,1-1.92-8.94q0-3.51,1.58-5t5.09-1.53Z"/><path class="cls-2" d="M280.12,616.28v49.93h-7.32V616.28h-15.9v-7H296v7Z"/><path class="cls-2" d="M380.86,637.75a28.86,28.86,0,0,1-8.43,21.15,29.56,29.56,0,0,1-41.66,0,30.75,30.75,0,0,1,0-42.3,29.46,29.46,0,0,1,41.66.08A28.77,28.77,0,0,1,380.86,637.75Zm-51,0q0,9.86,6.2,16.3a20.89,20.89,0,0,0,15.58,6.44A20.64,20.64,0,0,0,367.1,654q6.28-6.36,6.28-16.3t-6.28-16.3A20.64,20.64,0,0,0,351.6,615,20.89,20.89,0,0,0,336,621.45Q329.81,627.89,329.81,637.75Z"/><path class="cls-2" d="M468.32,637.75a28.86,28.86,0,0,1-8.43,21.15,29.56,29.56,0,0,1-41.66,0,30.75,30.75,0,0,1,0-42.3,29.46,29.46,0,0,1,41.66.08A28.77,28.77,0,0,1,468.32,637.75Zm-51,0q0,9.86,6.2,16.3a20.89,20.89,0,0,0,15.58,6.44,20.64,20.64,0,0,0,15.5-6.44q6.28-6.36,6.28-16.3t-6.28-16.3a20.64,20.64,0,0,0-15.5-6.44,20.89,20.89,0,0,0-15.58,6.44Q417.28,627.89,417.28,637.75Z"/><path class="cls-2" d="M532.8,666.21h-32V609.28h7.31v49.93H532.8Z"/><path class="cls-2" d="M564.29,666.21V609.28h20.59a16.59,16.59,0,0,1,11.61,4.45,14.24,14.24,0,0,1,4.85,11.05q0,8.43-7.71,11.85V637a13.81,13.81,0,0,1,7,5,13.2,13.2,0,0,1,2.62,8.07,15,15,0,0,1-5.09,11.61A17.14,17.14,0,0,1,586,666.21Zm7.31-49.93v17.41h13.28a8.85,8.85,0,0,0,6.52-2.62,8.45,8.45,0,0,0,.08-12.16,8.41,8.41,0,0,0-6.28-2.62Zm0,24.25v18.68h14.71a9.37,9.37,0,0,0,9.46-9.38,8.93,8.93,0,0,0-2.78-6.52,9.49,9.49,0,0,0-7-2.78Z"/><path class="cls-2" d="M691.1,637.75a28.86,28.86,0,0,1-8.43,21.15,29.56,29.56,0,0,1-41.66,0,30.75,30.75,0,0,1,0-42.3,29.47,29.47,0,0,1,41.66.08A28.77,28.77,0,0,1,691.1,637.75Zm-51,0q0,9.86,6.2,16.3a20.9,20.9,0,0,0,15.58,6.44A20.64,20.64,0,0,0,677.35,654q6.28-6.36,6.28-16.3t-6.28-16.3A20.64,20.64,0,0,0,661.84,615a20.9,20.9,0,0,0-15.58,6.44Q640.06,627.89,640.06,637.75Z"/><path class="cls-2" d="M725,666.21h-8.59l19.08-29.42-18-27.51h8.75l13.83,21.79h.32l13.84-21.79H763l-18,27.51,19.08,29.42H755.5l-15.11-23.3h-.32Z"/><circle class="cls-2" cx="510.5" cy="180.13" r="175.13"/><polygon class="cls-3" points="510.85 285.76 458.75 255.68 458.75 195.52 510.85 225.6 510.85 285.76"/><polygon class="cls-4" points="510.85 165.44 458.75 195.52 510.85 225.6 562.95 195.52 510.85 165.44"/><polygon class="cls-5" points="510.85 285.76 562.95 255.68 562.95 195.52 510.85 225.6 510.85 285.76"/><polygon class="cls-6" points="562.95 195.52 510.85 165.44 510.85 105.28 562.95 135.36 562.95 195.52"/><polygon class="cls-4" points="562.95 75.2 510.85 105.28 562.95 135.36 615.05 105.28 562.95 75.2"/><polygon class="cls-7" points="562.95 195.52 615.05 165.44 615.05 105.28 562.95 135.36 562.95 195.52"/><path class="cls-4" d="M458.75,196.22a.71.71,0,0,1-.35-.09L406.3,166a.7.7,0,0,1-.35-.61V105.28a.7.7,0,0,1,1.05-.61l52.1,30.08a.7.7,0,0,1,.35.61v60.16a.71.71,0,0,1-.35.61A.7.7,0,0,1,458.75,196.22ZM407.35,165l50.7,29.27V135.77l-50.7-29.27Z"/><path class="cls-4" d="M458.76,136.06a.7.7,0,0,1-.35-.09l-52.1-30.08a.7.7,0,0,1-.35-.61.71.71,0,0,1,.35-.61l52.1-30.08a.7.7,0,0,1,.7,0l52.1,30.08a.71.71,0,0,1,0,1.22L459.11,136A.69.69,0,0,1,458.76,136.06Zm-50.7-30.78,50.7,29.27,50.7-29.27L458.76,76Z"/><path class="cls-4" d="M510.85,166.14a.7.7,0,0,1-.35-.09l-3.65-2.1a.7.7,0,0,1,.7-1.22l3.65,2.11a.69.69,0,0,1,.26,1A.7.7,0,0,1,510.85,166.14Z"/><path class="cls-4" d="M500.8,160.34a.72.72,0,0,1-.35-.09l-6.4-3.7a.7.7,0,0,1,.7-1.21l6.4,3.69a.7.7,0,0,1-.35,1.31ZM488,153a.71.71,0,0,1-.35-.1l-6.4-3.69a.7.7,0,1,1,.7-1.21l6.4,3.69a.7.7,0,0,1,.26,1A.71.71,0,0,1,488,153Zm-12.8-7.39a.7.7,0,0,1-.35-.1l-6.4-3.69a.7.7,0,1,1,.7-1.21l6.4,3.69a.7.7,0,0,1-.35,1.31Z"/><path class="cls-4" d="M462.4,138.17a.7.7,0,0,1-.35-.09l-3.29-1.9-3.3,1.9a.7.7,0,0,1-.7-1.21l3.65-2.11a.7.7,0,0,1,.7,0l3.65,2.11a.7.7,0,0,1-.35,1.31Z"/><path class="cls-4" d="M416.7,160.34a.7.7,0,0,1-.35-1.31l6.4-3.69a.7.7,0,0,1,.7,1.21l-6.4,3.7A.74.74,0,0,1,416.7,160.34ZM429.5,153a.7.7,0,0,1-.35-1.31l6.4-3.69a.7.7,0,0,1,.7,1.21l-6.4,3.69A.67.67,0,0,1,429.5,153Zm12.8-7.39a.7.7,0,0,1-.35-1.31l6.4-3.69a.7.7,0,0,1,.7,1.21l-6.4,3.69A.68.68,0,0,1,442.3,145.56Z"/><path class="cls-4" d="M406.65,166.14a.7.7,0,0,1-.35-1.31l3.65-2.11a.7.7,0,0,1,.7,1.22L407,166A.7.7,0,0,1,406.65,166.14Z"/><path class="cls-4" d="M458.75,196.22a.71.71,0,0,1-.35-.09.7.7,0,0,1-.35-.61V135.36a.71.71,0,0,1,.35-.61l52.1-30.08a.71.71,0,0,1,.7,0,.69.69,0,0,1,.35.61v60.16a.71.71,0,0,1-.35.61l-52.1,30.08A.7.7,0,0,1,458.75,196.22Zm.7-60.46V194.3L510.15,165V106.5Z"/><path class="cls-4" d="M458.76,80.11a.7.7,0,0,1-.7-.7V75.2a.7.7,0,1,1,1.4,0v4.21A.7.7,0,0,1,458.76,80.11Z"/><path class="cls-4" d="M458.75,124.46h0a.7.7,0,0,1-.7-.7v-7.39a.7.7,0,0,1,.7-.7h0a.7.7,0,0,1,.7.7v7.39A.71.71,0,0,1,458.75,124.46Zm0-14.78a.7.7,0,0,1-.7-.7v-7.39a.7.7,0,1,1,1.4,0V109A.7.7,0,0,1,458.75,109.68Zm0-14.78a.7.7,0,0,1-.7-.7V86.8a.7.7,0,1,1,1.4,0v7.39A.7.7,0,0,1,458.76,94.89Z"/><path class="cls-4" d="M458.75,136.06a.7.7,0,0,1-.7-.7v-4.21a.7.7,0,1,1,1.4,0v4.21A.7.7,0,0,1,458.75,136.06Z"/></svg>